<svg width="18" height="20" viewBox="0 0 18 20" fill="none" xmlns="http://www.w3.org/2000/svg">
<path d="M16.3125 1.5H13.875V0.5625C13.875 0.413316 13.8157 0.270242 13.7102 0.164752C13.6048 0.0592632 13.4617 0 13.3125 0C13.1633 0 13.0202 0.0592632 12.9148 0.164752C12.8093 0.270242 12.75 0.413316 12.75 0.5625V1.5H4.875V0.5625C4.875 0.413316 4.81574 0.270242 4.71025 0.164752C4.60476 0.0592632 4.46168 0 4.3125 0C4.16332 0 4.02024 0.0592632 3.91475 0.164752C3.80926 0.270242 3.75 0.413316 3.75 0.5625V1.5H1.3125C0.964403 1.5 0.630564 1.63828 0.384422 1.88442C0.138281 2.13056 0 2.4644 0 2.8125V17.8125C0 18.1606 0.138281 18.4944 0.384422 18.7406C0.630564 18.9867 0.964403 19.125 1.3125 19.125H16.3125C16.6606 19.125 16.9944 18.9867 17.2406 18.7406C17.4867 18.4944 17.625 18.1606 17.625 17.8125V2.8125C17.625 2.4644 17.4867 2.13056 17.2406 1.88442C16.9944 1.63828 16.6606 1.5 16.3125 1.5ZM1.3125 2.625H3.75V3.5625C3.75 3.71168 3.80926 3.85476 3.91475 3.96025C4.02024 4.06574 4.16332 4.125 4.3125 4.125C4.46168 4.125 4.60476 4.06574 4.71025 3.96025C4.81574 3.85476 4.875 3.71168 4.875 3.5625V2.625H12.75V3.5625C12.75 3.71168 12.8093 3.85476 12.9148 3.96025C13.0202 4.06574 13.1633 4.125 13.3125 4.125C13.4617 4.125 13.6048 4.06574 13.7102 3.96025C13.8157 3.85476 13.875 3.71168 13.875 3.5625V2.625H16.3125C16.3622 2.625 16.4099 2.64475 16.4451 2.67992C16.4802 2.71508 16.5 2.76277 16.5 2.8125V6H1.125V2.8125C1.125 2.76277 1.14475 2.71508 1.17992 2.67992C1.21508 2.64475 1.26277 2.625 1.3125 2.625ZM16.3125 18H1.3125C1.26277 18 1.21508 17.9802 1.17992 17.9451C1.14475 17.9099 1.125 17.8622 1.125 17.8125V7.125H16.5V17.8125C16.5 17.8622 16.4802 17.9099 16.4451 17.9451C16.4099 17.9802 16.3622 18 16.3125 18Z" fill="#6039D2"/>
</svg>
