<svg width="21" height="21" viewBox="0 0 21 21" fill="none" xmlns="http://www.w3.org/2000/svg">
<path d="M20.0625 19.5H17.625V1.125H18.5625C18.7117 1.125 18.8548 1.06574 18.9602 0.960248C19.0657 0.854758 19.125 0.711684 19.125 0.5625C19.125 0.413316 19.0657 0.270242 18.9602 0.164752C18.8548 0.0592632 18.7117 0 18.5625 0H2.0625C1.91332 0 1.77024 0.0592632 1.66475 0.164752C1.55926 0.270242 1.5 0.413316 1.5 0.5625C1.5 0.711684 1.55926 0.854758 1.66475 0.960248C1.77024 1.06574 1.91332 1.125 2.0625 1.125H3V19.5H0.5625C0.413316 19.5 0.270242 19.5593 0.164752 19.6648C0.0592632 19.7702 0 19.9133 0 20.0625C0 20.2117 0.0592632 20.3548 0.164752 20.4602C0.270242 20.5657 0.413316 20.625 0.5625 20.625H20.0625C20.2117 20.625 20.3548 20.5657 20.4602 20.4602C20.5657 20.3548 20.625 20.2117 20.625 20.0625C20.625 19.9133 20.5657 19.7702 20.4602 19.6648C20.3548 19.5593 20.2117 19.5 20.0625 19.5ZM4.125 1.125H16.5V19.5H13.125V15.5625C13.125 15.4133 13.0657 15.2702 12.9602 15.1648C12.8548 15.0593 12.7117 15 12.5625 15H8.0625C7.91332 15 7.77024 15.0593 7.66475 15.1648C7.55926 15.2702 7.5 15.4133 7.5 15.5625V19.5H4.125V1.125ZM12 19.5H8.625V16.125H12V19.5ZM6.75 4.3125C6.75 4.16332 6.80926 4.02024 6.91475 3.91475C7.02024 3.80926 7.16332 3.75 7.3125 3.75H8.8125C8.96168 3.75 9.10476 3.80926 9.21025 3.91475C9.31574 4.02024 9.375 4.16332 9.375 4.3125C9.375 4.46168 9.31574 4.60476 9.21025 4.71025C9.10476 4.81574 8.96168 4.875 8.8125 4.875H7.3125C7.16332 4.875 7.02024 4.81574 6.91475 4.71025C6.80926 4.60476 6.75 4.46168 6.75 4.3125ZM11.25 4.3125C11.25 4.16332 11.3093 4.02024 11.4148 3.91475C11.5202 3.80926 11.6633 3.75 11.8125 3.75H13.3125C13.4617 3.75 13.6048 3.80926 13.7102 3.91475C13.8157 4.02024 13.875 4.16332 13.875 4.3125C13.875 4.46168 13.8157 4.60476 13.7102 4.71025C13.6048 4.81574 13.4617 4.875 13.3125 4.875H11.8125C11.6633 4.875 11.5202 4.81574 11.4148 4.71025C11.3093 4.60476 11.25 4.46168 11.25 4.3125ZM6.75 8.0625C6.75 7.91332 6.80926 7.77024 6.91475 7.66475C7.02024 7.55926 7.16332 7.5 7.3125 7.5H8.8125C8.96168 7.5 9.10476 7.55926 9.21025 7.66475C9.31574 7.77024 9.375 7.91332 9.375 8.0625C9.375 8.21168 9.31574 8.35476 9.21025 8.46025C9.10476 8.56574 8.96168 8.625 8.8125 8.625H7.3125C7.16332 8.625 7.02024 8.56574 6.91475 8.46025C6.80926 8.35476 6.75 8.21168 6.75 8.0625ZM11.25 8.0625C11.25 7.91332 11.3093 7.77024 11.4148 7.66475C11.5202 7.55926 11.6633 7.5 11.8125 7.5H13.3125C13.4617 7.5 13.6048 7.55926 13.7102 7.66475C13.8157 7.77024 13.875 7.91332 13.875 8.0625C13.875 8.21168 13.8157 8.35476 13.7102 8.46025C13.6048 8.56574 13.4617 8.625 13.3125 8.625H11.8125C11.6633 8.625 11.5202 8.56574 11.4148 8.46025C11.3093 8.35476 11.25 8.21168 11.25 8.0625ZM7.3125 12.375C7.16332 12.375 7.02024 12.3157 6.91475 12.2102C6.80926 12.1048 6.75 11.9617 6.75 11.8125C6.75 11.6633 6.80926 11.5202 6.91475 11.4148C7.02024 11.3093 7.16332 11.25 7.3125 11.25H8.8125C8.96168 11.25 9.10476 11.3093 9.21025 11.4148C9.31574 11.5202 9.375 11.6633 9.375 11.8125C9.375 11.9617 9.31574 12.1048 9.21025 12.2102C9.10476 12.3157 8.96168 12.375 8.8125 12.375H7.3125ZM11.25 11.8125C11.25 11.6633 11.3093 11.5202 11.4148 11.4148C11.5202 11.3093 11.6633 11.25 11.8125 11.25H13.3125C13.4617 11.25 13.6048 11.3093 13.7102 11.4148C13.8157 11.5202 13.875 11.6633 13.875 11.8125C13.875 11.9617 13.8157 12.1048 13.7102 12.2102C13.6048 12.3157 13.4617 12.375 13.3125 12.375H11.8125C11.6633 12.375 11.5202 12.3157 11.4148 12.2102C11.3093 12.1048 11.25 11.9617 11.25 11.8125Z" fill="#00D9FF"/>
</svg>
